<?xml version="1.0" standalone="no"?>
<!DOCTYPE svg PUBLIC "-//W3C//DTD SVG 20010904//EN"
 "http://www.w3.org/TR/2001/REC-SVG-20010904/DTD/svg10.dtd">
<svg version="1.0" xmlns="http://www.w3.org/2000/svg"
 width="512.000000pt" height="512.000000pt" viewBox="0 0 512.000000 512.000000"
 preserveAspectRatio="xMidYMid meet">

<g transform="translate(0.000000,512.000000) scale(0.100000,-0.100000)"
fill="#000000" stroke="none">
<path d="M799 5104 c-56 -17 -141 -90 -172 -148 l-22 -41 0 -2355 0 -2355 22
-41 c32 -61 115 -131 176 -149 44 -13 264 -15 1757 -15 1493 0 1713 2 1757 15
61 18 144 88 176 149 l22 41 3 1792 2 1791 -26 21 c-15 12 -33 21 -40 21 -26
0 -62 -23 -73 -47 -8 -17 -11 -514 -11 -1777 l0 -1753 -23 -34 c-12 -19 -38
-42 -57 -51 -33 -17 -136 -18 -1730 -18 -1594 0 -1697 1 -1730 18 -19 9 -45
32 -57 51 l-23 34 0 2307 0 2307 23 34 c12 19 38 42 57 51 33 17 125 18 1503
18 l1467 0 0 -269 c0 -262 1 -269 23 -302 43 -64 65 -69 320 -69 l227 0 0
-125 c0 -120 1 -127 25 -150 30 -31 77 -33 105 -5 19 19 20 33 20 204 l0 184
-187 209 c-104 114 -239 265 -301 335 -62 69 -120 129 -128 132 -9 3 -700 6
-1537 5 -1289 0 -1529 -3 -1568 -15z m3221 -336 c34 -40 99 -113 144 -162 128
-140 133 -126 -53 -126 l-161 0 0 180 c0 99 2 180 4 180 1 0 31 -33 66 -72z"/>
<path d="M1104 4490 c-25 -13 -49 -35 -62 -59 -21 -38 -22 -49 -22 -358 0
-449 -16 -427 318 -431 l227 -3 86 -84 c47 -46 98 -89 113 -95 39 -14 102 -12
134 4 38 21 627 615 645 651 68 140 -24 303 -182 322 -93 11 -126 -10 -308
-190 l-163 -161 0 155 c0 182 -9 210 -80 247 -43 21 -52 22 -355 22 -291 0
-313 -1 -351 -20z m636 -255 l0 -124 -42 19 c-156 71 -338 -66 -315 -235 4
-25 14 -59 22 -75 l16 -30 -126 0 -125 0 0 285 0 285 285 0 285 0 0 -125z"/>
<path d="M2780 4407 c-14 -7 -31 -26 -39 -42 -12 -25 -12 -32 0 -54 29 -51 37
-52 417 -49 l354 3 24 28 c30 35 30 59 0 94 l-24 28 -354 3 c-274 2 -359 -1
-378 -11z"/>
<path d="M2758 4033 c-38 -43 -28 -102 21 -123 18 -7 218 -10 653 -8 690 3
651 -1 664 65 5 26 1 37 -19 57 l-26 26 -639 0 c-596 0 -640 -1 -654 -17z"/>
<path d="M2774 3680 c-48 -19 -52 -105 -5 -129 13 -8 225 -11 651 -11 l631 0
24 25 c14 13 25 36 25 50 0 14 -11 37 -25 50 l-24 25 -628 -1 c-345 0 -637 -4
-649 -9z"/>
<path d="M1101 3072 c-19 -9 -44 -30 -55 -45 -20 -27 -21 -43 -24 -354 -3
-313 -2 -327 18 -368 16 -32 33 -49 64 -64 39 -19 61 -21 256 -21 l214 0 91
-89 c97 -96 127 -110 203 -96 32 6 79 48 345 313 170 169 317 323 326 342 29
56 34 105 16 165 -29 101 -112 165 -213 165 -87 0 -115 -19 -289 -193 l-163
-162 0 155 c0 175 -9 207 -69 247 -34 23 -38 23 -360 23 -291 0 -330 -2 -360
-18z m639 -252 c0 -66 -2 -120 -4 -120 -2 0 -20 7 -39 15 -47 19 -128 19 -175
0 -117 -49 -174 -195 -118 -305 9 -18 16 -35 16 -37 0 -1 -56 -3 -125 -3
l-125 0 0 285 0 285 285 0 285 0 0 -120z"/>
<path d="M2773 2988 c-48 -23 -51 -103 -4 -127 13 -7 144 -11 376 -11 232 0
363 4 376 11 48 25 43 110 -8 130 -35 13 -712 10 -740 -3z"/>
<path d="M2780 2627 c-38 -19 -54 -60 -38 -94 26 -54 13 -53 686 -51 l624 3
24 28 c13 15 24 37 24 47 0 10 -11 32 -24 47 l-24 28 -624 3 c-491 2 -628 -1
-648 -11z"/>
<path d="M2767 2259 c-47 -28 -40 -107 11 -128 19 -8 212 -11 654 -9 690 3
651 -1 664 65 5 26 1 37 -19 57 l-26 26 -633 0 c-424 -1 -639 -4 -651 -11z"/>
<path d="M1089 1647 c-67 -44 -69 -56 -69 -405 0 -349 2 -359 66 -408 l37 -29
226 -3 226 -4 91 -88 c80 -77 97 -89 137 -95 82 -13 105 5 433 336 324 327
328 332 327 434 -1 117 -101 217 -218 218 -94 1 -117 -14 -292 -186 l-163
-161 0 153 c0 139 -2 157 -22 192 -32 58 -65 69 -210 69 -136 0 -149 -5 -163
-62 -6 -22 -1 -33 23 -58 30 -29 33 -30 126 -30 l96 0 0 -120 c0 -108 -7 -139
-24 -111 -3 5 -29 14 -56 21 -133 32 -262 -63 -277 -203 -4 -41 -1 -64 15
-100 l21 -47 -125 0 -124 0 0 280 0 280 36 0 c50 0 99 48 89 88 -12 50 -32 62
-105 62 -53 0 -74 -5 -101 -23z"/>
<path d="M2767 1569 c-46 -27 -40 -111 10 -130 13 -5 179 -9 368 -9 189 0 355
4 368 9 51 20 56 105 8 130 -27 15 -729 14 -754 0z"/>
<path d="M2773 1208 c-48 -23 -51 -103 -4 -127 13 -8 225 -11 651 -11 l631 0
26 26 c20 20 24 31 19 57 -13 66 27 62 -669 64 -431 1 -639 -2 -654 -9z"/>
<path d="M2780 847 c-38 -19 -54 -60 -38 -94 26 -54 14 -53 686 -50 l624 2 24
28 c30 35 30 59 0 94 l-24 28 -624 3 c-492 2 -628 -1 -648 -11z"/>
</g>
</svg>
